<svg width="223" height="223" viewBox="0 0 223 223" fill="none" xmlns="http://www.w3.org/2000/svg">
<path d="M119.495 34.8805C120.652 47.6041 121.275 60.3278 121.72 73.0514C121.898 77.0554 121.987 81.0593 122.076 84.9743C124.923 82.216 127.859 79.4577 130.795 76.7884C140.049 68.0687 149.48 59.527 159.357 51.3412C162.916 48.4049 168.166 48.8498 171.102 52.4089C173.682 55.523 173.593 60.0609 171.102 63.0861C162.916 72.8735 154.374 82.394 145.654 91.6475C142.896 94.5837 140.227 97.431 137.469 100.367C141.473 100.367 145.477 100.545 149.48 100.723C162.204 101.168 174.928 101.791 187.651 102.948C192.278 103.392 195.659 107.396 195.214 112.023C194.859 116.116 191.566 119.23 187.651 119.586C174.928 120.743 162.204 121.366 149.48 121.811C145.477 121.988 141.473 122.077 137.558 122.166C140.316 125.014 143.074 127.95 145.743 130.886C154.463 140.14 163.005 149.571 171.191 159.448C174.127 163.007 173.682 168.256 170.123 171.192C167.009 173.773 162.471 173.684 159.446 171.192C149.658 163.007 140.138 154.465 130.884 145.745C127.948 142.987 125.101 140.318 122.165 137.559C122.076 141.563 121.987 145.567 121.809 149.482C121.364 162.206 120.741 174.929 119.584 187.653C119.14 192.28 115.136 195.572 110.509 195.216C106.416 194.86 103.302 191.568 102.946 187.653C101.789 174.929 101.166 162.206 100.721 149.482C100.543 145.478 100.454 141.563 100.365 137.559C97.5182 140.318 94.582 143.076 91.6458 145.745C82.3922 154.465 72.9607 163.007 63.0843 171.192C59.5253 174.129 54.2756 173.684 51.3394 170.125C48.7591 167.011 48.8481 162.473 51.3394 159.448C59.5253 149.66 68.067 140.14 76.7867 130.886C79.545 127.95 82.2143 125.103 84.9725 122.166C80.9686 122.077 76.9647 121.988 73.0497 121.811C60.3261 121.366 47.6024 120.743 34.8788 119.586C30.252 119.141 26.9599 115.137 27.3158 110.511C27.6717 106.418 30.9638 103.303 34.8788 102.948C47.6024 101.791 60.3261 101.168 73.0497 100.723C77.0536 100.545 81.0576 100.456 84.9725 100.367C82.2143 97.52 79.456 94.5837 76.7867 91.6475C68.067 82.394 59.5253 72.8735 51.3394 63.0861C48.4032 59.527 48.8481 54.2774 52.4072 51.3412C55.5213 48.7608 60.0591 48.8498 63.0843 51.3412C72.9607 59.527 82.3922 68.0687 91.6458 76.7884C94.582 79.5467 97.4292 82.216 100.365 84.9743C100.365 80.9703 100.543 76.9664 100.721 73.0514C101.166 60.3278 101.789 47.6041 102.946 34.8805C103.391 30.2537 107.395 26.8726 112.021 27.3175C116.114 27.6734 119.228 30.9655 119.584 34.8805H119.495ZM189.787 45.4687C193.346 41.9097 193.346 36.2152 189.787 32.6561C186.228 29.097 180.533 29.097 176.974 32.6561C173.415 36.2152 173.415 41.9097 176.974 45.4687C180.533 49.0278 186.228 49.0278 189.787 45.4687ZM32.4764 177.154C28.9174 180.713 28.9174 186.407 32.4764 189.966C36.0355 193.526 41.73 193.526 45.289 189.966C48.8481 186.407 48.8481 180.713 45.289 177.154C41.73 173.595 36.0355 173.595 32.4764 177.154ZM176.974 189.966C180.533 193.526 186.228 193.526 189.787 189.966C193.346 186.407 193.346 180.713 189.787 177.154C186.228 173.595 180.533 173.595 176.974 177.154C173.415 180.713 173.415 186.407 176.974 189.966ZM45.289 32.7451C41.73 29.186 36.0355 29.186 32.4764 32.7451C28.9174 36.3041 28.9174 41.9986 32.4764 45.5577C36.0355 49.1168 41.73 49.1168 45.289 45.5577C48.8481 41.9986 48.8481 36.3041 45.289 32.7451ZM213.277 120.387C218.259 120.387 222.352 116.383 222.352 111.4C222.352 106.418 218.348 102.414 213.277 102.414C208.205 102.414 204.29 106.418 204.29 111.4C204.29 116.383 208.294 120.387 213.277 120.387ZM8.98663 102.325C4.00394 102.325 0 106.329 0 111.311C0 116.294 4.00394 120.298 8.98663 120.298C13.9693 120.298 18.0622 116.294 18.0622 111.311C18.0622 106.329 14.0583 102.325 8.98663 102.325ZM102.145 213.456C102.145 218.439 106.149 222.443 111.132 222.443C116.114 222.443 120.118 218.439 120.118 213.456C120.118 208.474 116.114 204.381 111.132 204.381C106.149 204.381 102.145 208.385 102.145 213.456ZM120.118 9.16631C120.118 4.18363 116.114 0.179688 111.132 0.179688C106.149 0.179688 102.056 4.18363 102.056 9.16631C102.056 14.149 106.06 18.2419 111.132 18.2419C116.203 18.2419 120.118 14.238 120.118 9.16631Z" fill="#FF005A"/>
</svg>
