<svg width="321" height="53" viewBox="0 0 321 53" fill="none" xmlns="http://www.w3.org/2000/svg">
<path d="M51.9755 46.3769V6.33007C51.9755 3.08949 49.3724 0.428791 46.127 0.428791H6.43812C3.22651 0.428791 0.5896 3.08949 0.5896 6.33007C0.5896 6.90997 0.826245 7.45575 1.23192 7.86509L7.68896 14.3804C8.19606 14.8921 9.00742 14.8921 9.48071 14.3804L18.6761 5.10206C20.265 3.49882 22.8681 3.49882 24.457 5.10206C26.0121 6.67119 26.0459 9.16133 24.5922 10.7646C24.5584 10.7987 24.4908 10.8669 24.457 10.901L14.315 21.1003L5.59296 29.9011C5.49154 30.0034 5.39012 30.1058 5.32251 30.2081C4.00406 31.8113 4.10548 34.2333 5.59296 35.7342C7.08045 37.2351 9.4469 37.3374 11.0696 36.0071C11.171 35.9047 11.2725 35.8365 11.3739 35.7342L20.096 26.9334L24.7612 22.226C26.3502 20.8957 28.7504 20.998 30.2379 22.4989C31.7254 23.9998 31.8268 26.3876 30.5084 28.025L25.8431 32.7323L17.121 41.5331C17.0196 41.6354 16.9181 41.7378 16.8505 41.8401C15.5321 43.4433 15.6335 45.8653 17.121 47.3662C18.6085 48.8671 20.9749 48.9694 22.5976 47.6391C22.699 47.5367 22.8005 47.4685 22.9019 47.3662L31.624 38.5654L41.6983 28.4002C41.7321 28.3661 41.7997 28.2979 41.8335 28.2637C43.49 26.7628 46.0593 26.8311 47.5806 28.5366C49.0681 30.174 48.8991 32.7665 47.344 34.3356L38.2838 43.4775C37.7768 43.9891 37.7768 44.8078 38.2838 45.2854L44.6057 51.6642C45.0113 52.0736 45.5522 52.3123 46.127 52.3123C49.3724 52.2782 51.9755 49.6516 51.9755 46.3769Z" fill="white"/>
<path d="M77.1273 17.1419C70.7717 17.1419 64.8894 22.4633 64.8894 30.4795C64.8894 39.0756 70.9408 44.0899 77.7359 44.0899C83.7872 44.0899 87.7426 40.5082 89.0948 36.0737L84.0239 34.4705C83.2125 36.9606 81.3532 38.905 77.7359 38.905C74.0172 38.905 71.0422 36.142 70.8731 32.2874H89.2639C89.3315 32.185 89.4329 31.3664 89.4329 30.3771C89.3991 22.2927 84.869 17.1419 77.1273 17.1419ZM71.0422 27.8188C71.245 25.124 73.4086 22.1904 77.195 22.1904C81.3194 22.1904 83.2801 24.8511 83.3815 27.8188H71.0422Z" fill="white"/>
<path d="M123.68 17.1419C120.367 17.1419 117.392 18.3017 115.397 21.7128C114.045 18.6769 111.104 17.1419 107.723 17.1419C104.849 17.1419 101.638 18.5063 100.15 21.167V17.8923H94.3356V43.6806H100.387V28.3645C100.387 25.0898 102.449 22.6338 105.695 22.6338C109.177 22.6338 110.63 24.9534 110.63 27.9211V43.6465H116.614V28.3645C116.614 25.1922 118.71 22.6338 121.922 22.6338C125.336 22.6338 126.857 24.9193 126.857 27.9211V43.6465H132.74V26.9319C132.706 20.1096 128.277 17.1419 123.68 17.1419Z" fill="white"/>
<path d="M140.921 8.6507C138.757 8.6507 136.999 10.4586 136.999 12.6759C136.999 14.8931 138.791 16.6328 140.921 16.6328C143.118 16.6328 144.91 14.8931 144.91 12.6759C144.91 10.4586 143.118 8.6507 140.921 8.6507Z" fill="white"/>
<path d="M143.963 17.8944H137.912V43.6826H143.963V17.8944Z" fill="white"/>
<path d="M210.663 30.3089C210.663 22.2927 206.133 17.1419 198.391 17.1419C192.036 17.1419 186.153 22.4633 186.153 30.4795C186.153 39.0756 192.205 44.0899 199 44.0899C205.051 44.0899 209.006 40.5082 210.359 36.0737L205.288 34.4705C204.476 36.9606 202.617 38.905 199 38.905C195.281 38.905 192.306 36.142 192.137 32.2874H210.528C210.562 32.1509 210.663 31.2981 210.663 30.3089ZM192.272 27.8188C192.475 25.124 194.639 22.1904 198.425 22.1904C202.549 22.1904 204.51 24.8511 204.612 27.8188H192.272Z" fill="white"/>
<path d="M177.533 35.3269V25.5369V23.3538H181.793H182.807V17.8959H181.793H177.533V9.16341H171.989H171.448V16.1222V17.8618H160.867V9.16341H155.356H154.815V16.1222V17.8618H149.17V23.5585H154.815V25.5028V28.8116V36.282C154.815 41.0917 157.756 43.9571 162.489 43.9571C164.687 43.9571 165.836 43.5478 166.208 43.3772V38.2946C165.938 38.3628 164.957 38.4993 164.112 38.4993C161.847 38.4993 160.867 37.5442 160.867 35.2587V25.5369V23.3538H171.448V25.5369V28.8457V36.3161C171.448 41.1259 174.389 43.9912 179.122 43.9912C181.32 43.9912 182.469 43.5819 182.841 43.4113V38.3287C182.57 38.3969 181.59 38.5334 180.745 38.5334C178.514 38.5675 177.533 37.6124 177.533 35.3269Z" fill="white"/>
<path d="M222.968 44.0274V18.2732H226.112V22.5371C227.228 19.8423 230.304 17.5569 234.26 17.5569C238.215 17.5569 241.258 19.7741 242.306 23.3899C243.861 19.6718 247.005 17.5569 251.095 17.5569C256.065 17.5569 259.919 21.0021 259.919 26.9716V44.0274H256.707V27.3468C256.707 23.4581 254.442 20.4222 250.183 20.4222C245.957 20.4222 243.049 24.0039 243.049 28.1996V44.0274H239.838V27.3468C239.838 23.4581 237.64 20.4222 233.313 20.4222C229.087 20.4222 226.18 23.9357 226.18 28.1996V44.0274H222.968Z" fill="#00C2FF"/>
<path d="M265.158 37.3683C265.158 33.002 268.167 30.4436 272.798 29.7614L279.593 28.7381C281.791 28.3969 282.264 27.4418 282.264 26.2479C282.264 22.8368 279.999 20.4149 275.841 20.4149C271.784 20.4149 269.079 22.7003 268.674 26.4185L265.665 25.7704C266.24 20.8583 270.33 17.6177 275.773 17.6177C282.399 17.6177 285.476 21.677 285.476 26.589V39.6196C285.476 41.6663 285.645 42.9625 285.847 44.0541H282.703C282.602 43.4742 282.365 41.7345 282.365 39.6196C281.182 42.0415 278.14 44.7022 273.474 44.7022C268.133 44.6681 265.158 41.1205 265.158 37.3683ZM282.264 33.4795V30.546C282.095 30.7165 281.419 31.0235 280.405 31.1941L273.271 32.2856C270.263 32.7291 268.403 34.4006 268.403 37.1977C268.403 39.5855 270.33 41.9051 273.88 41.9051C278.748 41.9051 282.264 38.6645 282.264 33.4795Z" fill="#00C2FF"/>
<path d="M292.171 8.6507C293.658 8.6507 294.841 9.77637 294.841 11.3455C294.841 12.9146 293.658 14.0403 292.171 14.0403C290.683 14.0403 289.5 12.9146 289.5 11.3455C289.5 9.77637 290.683 8.6507 292.171 8.6507Z" fill="#00C2FF"/>
<path d="M293.793 18.2651H290.582V44.0192H293.793V18.2651Z" fill="#00C2FF"/>
<path d="M318.269 23.4555C316.545 22.2275 313.266 20.9313 309.716 20.9313C305.794 20.9313 303.022 22.671 303.022 25.5363C303.022 27.89 304.882 29.1863 308.736 29.6297L311.947 30.0049C317.187 30.6189 320.23 32.8021 320.23 36.8272C320.23 41.6369 315.869 44.4341 309.378 44.4341C305.727 44.4341 301.94 43.4449 299.033 41.1935L300.453 38.908C302.414 40.443 305.084 41.7734 309.412 41.7734C313.976 41.7734 317.086 40.2043 317.086 37.0319C317.086 34.6782 315.159 33.2455 311.271 32.8021L308.026 32.461C302.312 31.8128 299.878 29.2886 299.878 25.6728C299.878 20.9995 303.867 18.2024 309.682 18.2024C313.671 18.2024 317.289 19.4304 319.554 21.0677L318.269 23.4555Z" fill="#00C2FF"/>
</svg>
