<svg width="24" height="25" viewBox="0 0 24 25" fill="none" xmlns="http://www.w3.org/2000/svg">
<path d="M24 21.4603V2.75622C24 1.24269 22.7842 0 21.2684 0L2.73158 0C1.23158 0 0 1.24269 0 2.75622C0 3.02706 0.110526 3.28197 0.3 3.47316L3.31579 6.51615C3.55263 6.75513 3.93158 6.75513 4.15263 6.51615L8.44737 2.18267C9.18947 1.43387 10.4053 1.43387 11.1474 2.18267C11.8737 2.91554 11.8895 4.07857 11.2105 4.82737C11.1947 4.8433 11.1632 4.87516 11.1474 4.8911L6.41053 9.65474L2.33684 13.7652C2.28947 13.813 2.24211 13.8608 2.21053 13.9086C1.59474 14.6574 1.64211 15.7885 2.33684 16.4895C3.03158 17.1905 4.13684 17.2383 4.89474 16.617C4.94211 16.5692 4.98947 16.5373 5.03684 16.4895L9.11053 12.3791L11.2895 10.1805C12.0316 9.55915 13.1526 9.60694 13.8474 10.3079C14.5421 11.0089 14.5895 12.1242 13.9737 12.8889L11.7947 15.0875L7.72105 19.198C7.67368 19.2457 7.62632 19.2935 7.59474 19.3413C6.97895 20.0901 7.02632 21.2213 7.72105 21.9223C8.41579 22.6233 9.52105 22.6711 10.2789 22.0498C10.3263 22.002 10.3737 21.9701 10.4211 21.9223L14.4947 17.8119L19.2 13.0642C19.2158 13.0482 19.2474 13.0164 19.2632 13.0004C20.0368 12.2994 21.2368 12.3313 21.9474 13.1279C22.6421 13.8926 22.5632 15.1035 21.8368 15.8363L17.6053 20.1061C17.3684 20.3451 17.3684 20.7274 17.6053 20.9505L20.5579 23.9297C20.7474 24.1209 21 24.2324 21.2684 24.2324C22.7842 24.2165 24 22.9897 24 21.4603Z" fill="#0050DC"/>
</svg>
