<svg width="52" height="53" viewBox="0 0 52 53" fill="none" xmlns="http://www.w3.org/2000/svg">
<path d="M51.9754 46.3769V6.33007C51.9754 3.08949 49.3723 0.428791 46.1269 0.428791H6.43806C3.22645 0.428791 0.589539 3.08949 0.589539 6.33007C0.589539 6.90997 0.826184 7.45575 1.23186 7.86509L7.6889 14.3804C8.196 14.8921 9.00736 14.8921 9.48065 14.3804L18.676 5.10206C20.2649 3.49882 22.868 3.49882 24.4569 5.10206C26.012 6.67119 26.0458 9.16133 24.5922 10.7646C24.5583 10.7987 24.4907 10.8669 24.4569 10.901L14.315 21.1003L5.5929 29.9011C5.49148 30.0034 5.39006 30.1058 5.32245 30.2081C4.004 31.8113 4.10541 34.2333 5.5929 35.7342C7.08039 37.2351 9.44684 37.3374 11.0696 36.0071C11.171 35.9047 11.2724 35.8365 11.3738 35.7342L20.0959 26.9334L24.7612 22.226C26.3501 20.8957 28.7504 20.998 30.2378 22.4989C31.7253 23.9998 31.8267 26.3876 30.5083 28.025L25.843 32.7323L17.1209 41.5331C17.0195 41.6354 16.9181 41.7378 16.8505 41.8401C15.532 43.4433 15.6334 45.8653 17.1209 47.3662C18.6084 48.8671 20.9749 48.9694 22.5976 47.6391C22.699 47.5367 22.8004 47.4685 22.9018 47.3662L31.6239 38.5654L41.6982 28.4002C41.732 28.3661 41.7997 28.2979 41.8335 28.2637C43.49 26.7628 46.0593 26.8311 47.5806 28.5366C49.0681 30.174 48.899 32.7665 47.3439 34.3356L38.2838 43.4775C37.7767 43.9891 37.7767 44.8078 38.2838 45.2854L44.6056 51.6642C45.0113 52.0736 45.5522 52.3123 46.1269 52.3123C49.3723 52.2782 51.9754 49.6516 51.9754 46.3769Z" fill="#0050DC"/>
</svg>
