<svg width="172" height="36" viewBox="0 0 172 36" fill="none" xmlns="http://www.w3.org/2000/svg">
<path d="M55.6826 31.5589C55.6826 32.5299 55.3358 33.3623 54.6561 34.042C53.9763 34.7217 53.144 35.0685 52.173 35.0685C51.2019 35.0685 50.3696 34.7217 49.6899 34.042C49.0101 33.3623 48.6633 32.5299 48.6633 31.5589V3.95344C48.6633 2.98239 49.0101 2.15007 49.6899 1.47034C50.3696 0.790606 51.2019 0.443804 52.173 0.443804C53.144 0.443804 53.9763 0.790606 54.6561 1.47034C55.3358 2.15007 55.6826 2.98239 55.6826 3.95344V31.5589ZM104.387 20.7248V28.0492H115.763C117.136 28.0492 118.218 27.7024 118.995 27.0227C119.675 26.4123 120.021 25.6494 120.021 24.7616C120.007 23.7905 119.619 22.8888 118.884 22.0842C118.051 21.1826 117.011 20.7248 115.763 20.7248H104.387ZM104.387 7.44921V14.7737H115.763C116.942 14.7598 117.899 14.3575 118.634 13.5529C119.286 12.8593 119.619 11.9992 119.633 11.0005C119.633 10.0294 119.314 9.21096 118.69 8.5451C117.996 7.80988 117.011 7.44921 115.763 7.44921H104.387ZM115.763 0.443804C119.203 0.443804 121.922 1.49808 123.919 3.60664C125.709 5.52099 126.597 7.87924 126.597 10.6675C126.597 13.8165 125.39 16.1886 122.976 17.7978C125.737 19.6289 127.124 22.1675 127.138 25.4136C127.138 28.0076 126.194 30.2133 124.294 32.0305C122.199 34.042 119.355 35.0546 115.776 35.0546H100.892C99.9207 35.0546 99.0883 34.7078 98.4086 34.0281C97.7289 33.3484 97.3821 32.5161 97.3821 31.545V3.93957C97.3821 2.96852 97.7289 2.1362 98.4086 1.45647C99.0883 0.776733 99.9207 0.429932 100.892 0.429932H115.776L115.763 0.443804ZM76.893 7.44921C74.0492 7.44921 71.6216 8.46187 69.6102 10.4733C67.5987 12.4848 66.5861 14.9124 66.5861 17.7562C66.5861 20.5999 67.5987 23.0276 69.6102 25.039C71.6216 27.0505 74.0492 28.0631 76.893 28.0631C79.7368 28.0631 82.1783 27.0643 84.2036 25.039C86.2012 23.0276 87.2 20.5999 87.2 17.7562C87.2 14.9124 86.2012 12.4848 84.2036 10.4733C82.1921 8.46187 79.7507 7.44921 76.893 7.44921ZM89.1421 5.50711C92.513 8.87803 94.2054 12.9703 94.2054 17.7562C94.2054 22.542 92.513 26.6065 89.1421 30.0052C85.7711 33.3761 81.6789 35.0685 76.893 35.0685C72.1071 35.0685 68.0426 33.3761 64.644 30.0052C61.2731 26.6065 59.5807 22.5282 59.5807 17.7562C59.5807 12.9842 61.2731 8.8919 64.644 5.50711C68.0426 2.1362 72.121 0.443804 76.893 0.443804C81.665 0.443804 85.7573 2.1362 89.1421 5.50711Z" fill="#FEFEFE"/>
<path d="M18.6302 5.79842C18.8105 7.78212 18.9076 9.76583 18.977 11.7495C19.0047 12.3738 19.0186 12.998 19.0325 13.6084C19.4764 13.1784 19.9342 12.7483 20.392 12.3322C21.8347 10.9727 23.3051 9.64098 24.8449 8.36475C25.3998 7.90697 26.2182 7.97633 26.676 8.53122C27.0783 9.01674 27.0644 9.72422 26.676 10.1959C25.3998 11.7218 24.0681 13.2061 22.7086 14.6488C22.2786 15.1066 21.8624 15.5505 21.4324 16.0083C22.0566 16.0083 22.6809 16.036 23.3051 16.0638C25.2888 16.1331 27.2725 16.2302 29.2562 16.4106C29.9776 16.4799 30.5047 17.1042 30.4353 17.8255C30.3799 18.4636 29.8666 18.9492 29.2562 19.0046C27.2725 19.185 25.2888 19.2821 23.3051 19.3514C22.6809 19.3792 22.0566 19.3931 21.4462 19.4069C21.8763 19.8508 22.3063 20.3086 22.7225 20.7664C24.0819 22.2091 25.4137 23.6795 26.6899 25.2193C27.1477 25.7742 27.0783 26.5927 26.5234 27.0504C26.0379 27.4527 25.3304 27.4389 24.8588 27.0504C23.3328 25.7742 21.8485 24.4425 20.4058 23.083C19.9481 22.653 19.5041 22.2368 19.0464 21.8068C19.0325 22.431 19.0186 23.0553 18.9909 23.6657C18.9215 25.6494 18.8244 27.6331 18.6441 29.6168C18.5747 30.3381 17.9505 30.8514 17.2291 30.7959C16.591 30.7404 16.1055 30.2272 16.05 29.6168C15.8696 27.6331 15.7725 25.6494 15.7032 23.6657C15.6754 23.0414 15.6616 22.431 15.6477 21.8068C15.2038 22.2368 14.746 22.6669 14.2882 23.083C12.8456 24.4425 11.3751 25.7742 9.8353 27.0504C9.28042 27.5082 8.46198 27.4389 8.0042 26.884C7.60191 26.3985 7.61578 25.691 8.0042 25.2193C9.28043 23.6934 10.6121 22.2091 11.9716 20.7664C12.4016 20.3086 12.8178 19.8647 13.2478 19.4069C12.6236 19.3931 11.9994 19.3792 11.389 19.3514C9.40528 19.2821 7.42156 19.185 5.43785 19.0046C4.7165 18.9353 4.20323 18.311 4.25872 17.5897C4.31421 16.9516 4.82748 16.466 5.43785 16.4106C7.42156 16.2302 9.40528 16.1331 11.389 16.0638C12.0132 16.036 12.6375 16.0221 13.2478 16.0083C12.8178 15.5644 12.3878 15.1066 11.9716 14.6488C10.6121 13.2061 9.28043 11.7218 8.0042 10.1959C7.54642 9.64098 7.61577 8.82253 8.17065 8.36475C8.65618 7.96246 9.36365 7.97633 9.8353 8.36475C11.3751 9.64098 12.8456 10.9727 14.2882 12.3322C14.746 12.7622 15.1899 13.1784 15.6477 13.6084C15.6477 12.9842 15.6754 12.3599 15.7032 11.7495C15.7725 9.76583 15.8696 7.78212 16.05 5.79842C16.1193 5.07707 16.7436 4.54993 17.4649 4.61929C18.1031 4.67478 18.5886 5.18805 18.6441 5.79842H18.6302ZM29.5891 7.44919C30.144 6.89431 30.144 6.0065 29.5891 5.45161C29.0343 4.89673 28.1465 4.89673 27.5916 5.45161C27.0367 6.0065 27.0367 6.89431 27.5916 7.44919C28.1465 8.00408 29.0343 8.00408 29.5891 7.44919ZM5.0633 27.9799C4.50842 28.5348 4.50842 29.4226 5.0633 29.9775C5.61818 30.5323 6.506 30.5323 7.06088 29.9775C7.61577 29.4226 7.61577 28.5348 7.06088 27.9799C6.506 27.425 5.61818 27.425 5.0633 27.9799ZM27.5916 29.9775C28.1465 30.5323 29.0343 30.5323 29.5891 29.9775C30.144 29.4226 30.144 28.5348 29.5891 27.9799C29.0343 27.425 28.1465 27.425 27.5916 27.9799C27.0367 28.5348 27.0367 29.4226 27.5916 29.9775ZM7.06088 5.46549C6.506 4.9106 5.61818 4.9106 5.0633 5.46549C4.50842 6.02037 4.50842 6.90818 5.0633 7.46307C5.61818 8.01795 6.506 8.01795 7.06088 7.46307C7.61577 6.90818 7.61577 6.02037 7.06088 5.46549ZM33.2514 19.1295C34.0282 19.1295 34.6663 18.5052 34.6663 17.7284C34.6663 16.9516 34.0421 16.3273 33.2514 16.3273C32.4607 16.3273 31.8503 16.9516 31.8503 17.7284C31.8503 18.5052 32.4745 19.1295 33.2514 19.1295ZM1.40107 16.3135C0.624236 16.3135 0 16.9377 0 17.7145C0 18.4914 0.624236 19.1156 1.40107 19.1156C2.17791 19.1156 2.81603 18.4914 2.81603 17.7145C2.81603 16.9377 2.19178 16.3135 1.40107 16.3135ZM15.9251 33.6397C15.9251 34.4165 16.5494 35.0408 17.3262 35.0408C18.1031 35.0408 18.7273 34.4165 18.7273 33.6397C18.7273 32.8629 18.1031 32.2247 17.3262 32.2247C16.5494 32.2247 15.9251 32.849 15.9251 33.6397ZM18.7273 1.78939C18.7273 1.01255 18.1031 0.388306 17.3262 0.388306C16.5494 0.388306 15.9113 1.01255 15.9113 1.78939C15.9113 2.56622 16.5355 3.20434 17.3262 3.20434C18.1169 3.20434 18.7273 2.58009 18.7273 1.78939Z" fill="#FF005A"/>
<path d="M144.492 14.8154H147.113L151.025 4.89684V14.8154H153.869V0.0138711H150.11L145.796 10.9867L141.509 0.0138711H137.764V14.8154H140.607V4.98008L144.478 14.8154H144.492ZM166.645 12.0826H159.82V8.53133H165.882V5.82627H159.82V2.71893H166.507V0H156.699V14.8015H166.659V12.0826H166.645ZM172 14.8154V0.0138711H168.865V14.8154H172Z" fill="#FEFEFE"/>
</svg>
